HIERARCHY
ROOT root
{
	OFFSET	0	13.1	24.9
	CHANNELS 6  Xposition Yposition Zposition Xrotation Yrotation Zrotation
	JOINT spine_1
	{
		OFFSET	0	9.99999	0
		CHANNELS 3  Xrotation Yrotation Zrotation
		JOINT spine_2
		{
			OFFSET	0	112	-10
			CHANNELS 3  Xrotation Yrotation Zrotation
			JOINT spine_3
			{
				OFFSET	0	206.5	19.3
				CHANNELS 3  Xrotation Yrotation Zrotation
				JOINT spine_4
				{
					OFFSET	0	110.4	14.6
					CHANNELS 3  Xrotation Yrotation Zrotation
					JOINT neck_1
					{
						OFFSET	0	71.8	-50.3
						CHANNELS 3  Xrotation Yrotation Zrotation
						JOINT neck_2
						{
							OFFSET	0	86.2	-25.8
							CHANNELS 3  Xrotation Yrotation Zrotation
							JOINT head_ee
							{
								OFFSET	0	179.8	-8.7
								CHANNELS 3  Xrotation Yrotation Zrotation
								End Site
								{
									OFFSET	1	0	0
								}
							}
						}
					}
					JOINT left_clavicle
					{
						OFFSET	-43.2	22.4	-70.8
						CHANNELS 3  Xrotation Yrotation Zrotation
						JOINT left_shoulder
						{
							OFFSET	-93.9	-5.79999	48.7
							CHANNELS 3  Xrotation Yrotation Zrotation
							JOINT left_elbow
							{
								OFFSET	-291.4	-30.8	15.2
								CHANNELS 3  Xrotation Yrotation Zrotation
								JOINT left_lowarm_twist
								{
									OFFSET	-110.7	-3.89999	13.6
									CHANNELS 3  Xrotation Yrotation Zrotation
									JOINT left_hand
									{
										OFFSET	-110.7	-3.89999	13.6
										CHANNELS 3  Xrotation Yrotation Zrotation
										JOINT left_ee
										{
											OFFSET	-80.8	-5.10001	12.1
											CHANNELS 3  Xrotation Yrotation Zrotation
											End Site
											{
												OFFSET	1	0	0
											}
										}
									}
								}
							}
						}
					}
					JOINT right_clavicle
					{
						OFFSET	43.2	22.4	-70.8
						CHANNELS 3  Xrotation Yrotation Zrotation
						JOINT right_shoulder
						{
							OFFSET	93.9	-5.79999	48.7
							CHANNELS 3  Xrotation Yrotation Zrotation
							JOINT right_elbow
							{
								OFFSET	291.4	-30.8	15.2
								CHANNELS 3  Xrotation Yrotation Zrotation
								JOINT right_lowarm_twist
								{
									OFFSET	110.7	-3.89999	13.6
									CHANNELS 3  Xrotation Yrotation Zrotation
									JOINT right_hand
									{
										OFFSET	110.7	-3.89999	13.6
										CHANNELS 3  Xrotation Yrotation Zrotation
										JOINT right_ee
										{
											OFFSET	80.8	-5.10001	12.1
											CHANNELS 3  Xrotation Yrotation Zrotation
											End Site
											{
												OFFSET	1	0	0
											}
										}
									}
								}
							}
						}
					}
				}
			}
		}
	}
	JOINT left_hip
	{
		OFFSET	-82.8	-127.5	0.300001
		CHANNELS 3  Xrotation Yrotation Zrotation
		JOINT left_knee
		{
			OFFSET	-28.2	-396.7	2.2
			CHANNELS 3  Xrotation Yrotation Zrotation
			JOINT left_ankle
			{
				OFFSET	-11.7	-411.3	35.4
				CHANNELS 3  Xrotation Yrotation Zrotation
				JOINT left_toes
				{
					OFFSET	0	-60	-88.6
					CHANNELS 3  Xrotation Yrotation Zrotation
					JOINT left_foot_ee
					{
						OFFSET	-22.5	-16.5	-42.2
						CHANNELS 3  Xrotation Yrotation Zrotation
						End Site
						{
							OFFSET	1	0	0
						}
					}
				}
			}
		}
	}
	JOINT right_hip
	{
		OFFSET	82.8	-127.5	0.300001
		CHANNELS 3  Xrotation Yrotation Zrotation
		JOINT right_knee
		{
			OFFSET	28.2	-396.7	2.2
			CHANNELS 3  Xrotation Yrotation Zrotation
			JOINT right_ankle
			{
				OFFSET	11.7	-411.3	35.4
				CHANNELS 3  Xrotation Yrotation Zrotation
				JOINT right_toes
				{
					OFFSET	0	-60	-88.6
					CHANNELS 3  Xrotation Yrotation Zrotation
					JOINT right_foot_ee
					{
						OFFSET	22.5	-16.5	-42.2
						CHANNELS 3  Xrotation Yrotation Zrotation
						End Site
						{
							OFFSET	1	0	0
						}
					}
				}
			}
		}
	}
}
MOTION
Frames: 11
Frame Time: 0.02
813.826 675.277 -595.756 159.024 -72.4508 162.964 -1.66086 0.63164 2.13428 -1.65846 0.494583 2.17013 -1.63684 -0.0360492 2.22546 -1.64362 0.315786 2.20324 -24.0366 0.540154 -18.3813 -23.2598 9.08988 -16.8743 -0.0 0.0 -0.0 -3.6048 20.5783 -2.85066 -11.8486 3.08728 75.6815 0.511408 -14.2162 0.0637731 -60.7711 -5.3788 5.12454 2.25612 18.477 21.6558 -0.0 0.0 -0.0 13.2488 27.525 -26.0626 23.2812 4.35717 -67.5608 1.89277 43.1517 -0.748535 75.3319 3.31158 8.32503 0.84043 -28.5715 -15.89 0.0 0.0 0.0 28.0493 15.3596 -18.3961 -11.4507 0.299549 1.72885 -10.0429 9.53325 1.49748 -9.79575 0.0 0.0 -0.0 0.0 -0.0 -28.4388 38.761 -1.30786 -9.08343 -0.266079 -1.36718 42.9057 -25.8687 5.46924 -3.73694 0.0 0.0 0.0 0.0 0.0 
839.541 672.144 -604.774 160.188 -73.1126 164.471 -1.5184 0.496794 1.8791 -1.51652 0.376237 1.90689 -1.50191 -0.0838318 1.94183 -1.5071 0.223837 1.93071 -22.9243 -1.84018 -17.2162 -22.1364 4.31963 -16.8434 -0.0 0.0 -0.0 -3.45687 20.6905 -2.61031 -10.8001 2.87556 75.7182 0.509406 -14.1628 0.0632823 -61.3016 -5.44506 5.13986 2.00846 19.2891 20.2776 -0.0 0.0 -0.0 13.479 27.3642 -26.6161 22.7531 5.36077 -67.1789 1.80302 41.7662 -0.687947 74.4118 3.21055 8.26391 0.0197343 -28.4597 -11.2652 0.0 0.0 0.0 28.2042 14.6008 -18.164 -15.2953 0.321998 2.31819 0.301952 7.80284 -0.0441588 -12.2094 0.0 0.0 -0.0 0.0 -0.0 -29.4876 38.6748 0.163487 -9.45316 -0.272291 -1.42357 40.5021 -25.9323 5.24753 -0.956725 0.0 0.0 0.0 0.0 0.0 
860.3 671.79 -617.99 161.801 -72.7915 166.144 -1.49751 0.325778 1.83532 -1.49566 0.208352 1.85232 -1.48713 -0.233732 1.84929 -1.4919 0.0612099 1.86299 -22.4087 -2.88659 -17.283 -21.59 2.48569 -17.3433 -0.0 0.0 -0.0 -2.63674 20.0297 -1.53761 -9.52232 3.2104 75.6299 0.478977 -13.348 0.0560469 -61.2608 -5.43996 5.1387 1.70635 21.741 19.0681 -0.0 0.0 -0.0 13.0459 27.3388 -25.6186 19.6857 7.31632 -65.844 1.9268 43.6611 -0.771918 74.3569 3.20455 8.26021 -0.109861 -28.8736 -10.6968 0.0 0.0 0.0 28.4106 13.9901 -18.0007 -18.6053 0.309628 2.82583 3.94956 7.18236 -0.572209 -14.4156 0.0 0.0 -0.0 0.0 -0.0 -31.6924 38.4577 2.06736 -8.28397 -0.251403 -1.24538 37.3898 -26.1866 4.94754 2.09679 -0.0 -0.0 0.0 0.0 0.0 
883.089 672.49 -623.983 159.862 -72.2418 164.531 -1.38289 0.250731 1.38554 -1.38183 0.162066 1.39869 -1.37688 -0.169179 1.39784 -1.3796 0.0536849 1.40702 -22.3056 -3.08027 -17.0846 -21.5017 2.04976 -17.2374 -0.0 0.0 -0.0 -2.18477 21.6856 -0.584546 -8.56125 2.00962 74.9383 0.588851 -16.2621 0.0841323 -62.3855 -5.58082 5.16923 1.38739 26.083 18.3504 -0.0 0.0 -0.0 12.8898 26.6517 -25.3448 17.2137 9.29929 -65.5422 1.86726 42.764 -0.731148 74.8687 3.2606 8.29447 -0.134788 -28.6447 -10.4786 0.0 0.0 0.0 26.6293 13.9606 -17.4641 -21.3401 0.277305 3.24416 11.123 5.68279 -1.57588 -16.6722 0.0 0.0 -0.0 0.0 -0.0 -32.301 38.3639 3.49075 -10.2687 -0.284706 -1.54809 33.4723 -27.123 4.5591 4.96885 -0.0 -0.0 0.0 0.0 0.0 
910.525 674.883 -634.053 159.522 -72.6875 164.648 -1.3268 0.208786 1.13683 -1.32609 0.136028 1.14781 -1.32271 -0.134797 1.14796 -1.32454 0.0481807 1.15484 -22.5532 -4.38529 -15.7205 -21.8633 -1.18787 -16.5527 -0.0 0.0 -0.0 -1.70523 23.273 0.351123 -5.94874 -1.42397 73.8772 0.471789 -13.1547 0.0543992 -64.3371 -5.82653 5.2156 0.953793 29.1434 16.6974 -0.0 0.0 -0.0 12.8167 26.3172 -25.2166 13.0444 11.2894 -63.1798 1.87655 42.9058 -0.737468 74.2267 3.19034 8.25142 -0.431848 -28.9558 -8.96795 0.0 0.0 0.0 24.9661 14.336 -16.8383 -21.852 0.269038 3.32227 16.7722 6.497 -2.32312 -18.7994 0.0 0.0 -0.0 0.0 -0.0 -32.5699 35.7319 3.57574 -10.3475 -0.285812 -1.56014 26.4848 -27.1958 3.74089 8.28571 -0.0 -0.0 0.0 0.0 0.0 
934.516 680.401 -640.158 157.982 -72.7721 163.471 -1.0301 0.0724397 0.759432 -1.02978 0.0239697 0.762502 -1.02923 -0.150292 0.747929 -1.03 -0.0302883 0.762277 -22.3613 -5.51886 -14.5743 -21.7853 -3.864 -15.9759 -0.0 0.0 -0.0 -1.19535 23.4164 1.07269 -5.3912 -2.32706 73.4111 0.58441 -16.1459 0.0828929 -65.0715 -5.91936 5.23087 0.863013 29.1362 16.1831 -0.0 0.0 -0.0 12.5142 25.8712 -24.5729 7.30141 13.1615 -61.626 2.00454 44.7934 -0.826145 74.6241 3.23378 8.27816 0.149298 -28.8183 -12.1042 0.0 0.0 0.0 23.3162 15.908 -16.7666 -23.6568 0.234326 3.59705 21.7748 3.06637 -2.95508 -19.0188 0.0 0.0 -0.0 0.0 -0.0 -30.5477 33.8615 2.72746 -16.2588 -0.321424 -2.46602 21.3517 -27.3586 3.08906 9.7463 -0.0 -0.0 0.0 0.0 0.0 
955.083 681.519 -646.781 157.966 -73.0857 163.679 -0.831265 -0.0220253 0.473879 -0.831142 -0.0521345 0.471518 -0.831506 -0.156591 0.447802 -0.831776 -0.0839042 0.466912 -22.3119 -7.1422 -13.6466 -21.869 -7.42821 -15.8365 -0.0 0.0 -0.0 -0.867851 23.6873 1.55767 -3.9654 -4.00071 72.9451 0.626882 -17.2517 0.0950974 -66.1719 -6.05876 5.2515 0.872773 29.3393 16.297 -0.0 0.0 -0.0 12.625 26.5093 -24.7527 2.13335 14.4099 -59.8538 2.10927 46.2513 -0.900878 74.9729 3.27205 8.30138 0.278971 -28.5939 -12.7478 0.0 0.0 0.0 21.8192 16.0158 -15.9926 -24.6207 0.212246 3.74332 28.4693 3.11285 -3.72797 -19.5389 0.0 0.0 -0.0 0.0 -0.0 -28.0639 32.9765 1.88982 -20.3089 -0.291838 -3.08661 16.1286 -28.312 2.39649 11.1464 -0.0 -0.0 0.0 0.0 0.0 
976.347 693.995 -654.861 156.285 -73.8132 162.835 -0.694639 -0.083161 0.244709 -0.694611 -0.098564 0.238922 -0.695019 -0.14915 0.211075 -0.695063 -0.113943 0.231982 -21.9464 -8.40733 -13.0279 -21.6187 -10.0807 -15.7869 -0.0 0.0 -0.0 -0.43884 23.5484 2.12465 -2.54231 -5.62822 72.4241 0.664856 -18.2294 0.106669 -66.817 -6.14064 5.26235 0.83527 29.0495 16.0015 -0.0 0.0 -0.0 12.7599 26.4781 -25.0668 -3.21405 14.3165 -57.6792 2.07484 45.7804 -0.876109 75.4768 3.32759 8.33452 0.524127 -28.2013 -13.9915 0.0 0.0 0.0 20.4102 17.5304 -16.2342 -24.898 0.205439 3.78533 30.8562 3.89465 -3.98169 -19.9691 0.0 0.0 -0.0 0.0 -0.0 -24.5932 32.2639 -0.146429 -24.8222 -0.207322 -3.77384 11.9175 -28.6551 1.80064 12.1173 -0.0 -0.0 0.0 0.0 0.0 
993.593 697.601 -659.608 154.836 -73.5128 161.498 -0.619737 0.0887331 0.0502285 -0.61974 0.0853571 0.0557731 -0.619655 0.0709405 0.0732388 -0.619653 0.0816169 0.0611159 -23.0401 -8.69465 -11.6305 -22.8781 -11.522 -14.8106 -0.0 0.0 -0.0 -0.118766 23.6385 2.57173 -1.95751 -8.68493 72.0453 0.789015 -21.3482 0.148719 -67.2039 -6.18981 5.26841 0.49004 28.7852 13.9854 -0.0 0.0 -0.0 12.7779 26.5382 -25.1008 -6.9982 15.0908 -56.8517 1.94986 44.0016 -0.787889 76.0849 3.39499 8.37385 0.843495 -27.2443 -15.5106 0.0 0.0 0.0 18.6965 19.3187 -16.1783 -25.2669 0.196067 3.84116 32.4839 3.7862 -4.15043 -19.3904 0.0 0.0 -0.0 0.0 -0.0 -21.7247 31.2997 -0.216044 -30.1829 -0.0370182 -4.57862 8.81942 -28.5471 1.34435 12.1233 -0.0 -0.0 0.0 0.0 0.0 
1004.72 703.803 -670.085 151.271 -74.2871 158.493 -0.602009 -0.0406819 -0.0705851 -0.602006 -0.036108 -0.0730307 -0.601957 -0.0191212 -0.0791938 -0.601965 -0.0313884 -0.0751801 -25.4651 -8.78504 -11.6214 -25.3759 -12.1776 -15.253 -0.0 0.0 -0.0 1.00809 22.6516 4.02918 -0.288681 -11.1849 71.1414 0.86129 -23.1057 0.176062 -67.091 -6.17546 5.26668 0.144453 29.0221 12.1462 -0.0 0.0 -0.0 12.6381 26.4979 -24.7843 -9.85822 14.9275 -56.262 1.843 42.391 -0.71474 77.0021 3.49745 8.43182 1.08197 -24.1828 -15.9774 0.0 0.0 0.0 17.2452 21.1701 -15.6792 -23.8384 0.230356 3.62463 30.7086 2.69974 -3.97013 -18.903 0.0 0.0 -0.0 0.0 -0.0 -15.468 30.7204 -2.96849 -40.4518 0.495758 -6.0614 6.26854 -26.9615 0.952951 12.1704 -0.0 -0.0 0.0 0.0 0.0 
1024.41 710.513 -678.19 149.864 -74.3654 156.821 -0.70539 -0.0568262 -0.242131 -0.705358 -0.0413036 -0.245256 -0.705155 0.0142229 -0.248303 -0.70524 -0.0251703 -0.247433 -27.7891 -8.31315 -12.0847 -27.6781 -11.5232 -15.8409 -0.0 0.0 -0.0 1.7226 21.9239 4.98176 0.668285 -13.6319 70.2796 0.920917 -24.5219 0.200139 -66.1021 -6.04991 5.25028 -0.0586226 27.8561 10.619 -0.0 0.0 -0.0 12.1837 25.9936 -23.8015 -11.9769 13.7715 -56.5993 1.70346 40.1558 -0.622675 77.7098 3.57713 8.47544 1.24243 -22.3978 -16.3991 0.0 0.0 0.0 15.9693 21.6732 -15.1634 -24.9269 0.204717 3.7897 30.4334 1.62954 -3.9461 -18.3027 0.0 0.0 -0.0 0.0 -0.0 -12.3718 30.7788 -2.69844 -47.3774 1.00151 -6.99838 4.04 -22.7467 0.604343 11.3157 -0.0 -0.0 0.0 0.0 0.0 
